<?xml version="1.0" encoding="utf-8"?>
<!-- Generator: Adobe Illustrator 16.0.0, SVG Export Plug-In . SVG Version: 6.00 Build 0)  -->
<!DOCTYPE svg PUBLIC "-//W3C//DTD SVG 1.1//EN" "http://www.w3.org/Graphics/SVG/1.1/DTD/svg11.dtd">
<svg version="1.1" id="Layer_1" xmlns="http://www.w3.org/2000/svg" xmlns:xlink="http://www.w3.org/1999/xlink" x="0px" y="0px"
	 width="256px" height="256px" viewBox="0 0 256 256" enable-background="new 0 0 256 256" xml:space="preserve">
<g>
	<g>
		<path fill="none" d="M1,257.968C1,172.312,1,86.656,1,1c85.656,0,171.312,0,256.968,0c0,85.656,0,171.312,0,256.968
			C172.312,257.968,86.656,257.968,1,257.968z M130.312,76.597c0,0.005,0,0.011,0,0.016c-6.158,0-12.367,0.48-18.46-0.152
			c-4.841-0.503-8.362,1.381-11.774,4.046c-2.211,1.729-4.161,3.798-6.184,5.76c-18.77,18.199-32.713,39.403-40.653,64.475
			c-6.866,21.684-6.201,42.217,7.094,61.675c15.758,23.062,38.178,34.154,65.155,36.641c7.591,0.7,15.49-1.133,23.166-2.329
			c10.749-1.676,20.525-6.178,29.448-12.217c14.667-9.93,25.646-22.744,31.003-40.113c3.301-10.701,3.376-21.591,0.919-31.95
			c-2.564-10.811-7.322-21.194-11.909-31.411c-8.109-18.066-20.208-33.409-34.309-47.184c-5.221-5.1-11.018-8.674-19.033-7.394
			C140.067,77.212,135.141,76.597,130.312,76.597z M126.547,72.459c0,0.048,0,0.097,0,0.145c7.163,0,14.325-0.026,21.487,0.012
			c3.471,0.02,6.367-0.52,8.446-3.976c2.377-3.952,5.718-7.318,8.165-11.236c3.572-5.721,6.841-11.644,10.013-17.601
			c2.479-4.656,1.071-6.236-4.091-6.515c-2.754-0.148-6.063-1.29-7.999-3.152c-5.435-5.229-11.715-6.491-18.819-5.844
			c-2.312,0.211-4.664,0.126-6.991,0.01c-8.851-0.439-17.134,1.953-24.891,5.77c-5.744,2.826-10.646,7.542-16.537,9.842
			c-6.537,2.552-9.997,6.938-12.955,12.816c-1.541,3.062-0.931,4.459,1.304,6.197c4.842,3.761,9.488,7.801,14.532,11.263
			c2.019,1.386,4.854,2.069,7.355,2.17C112.549,72.645,119.552,72.459,126.547,72.459z M85.453,77.37
			c0.164,0.488,0.328,0.977,0.492,1.464c-2.899,2.358-6.098,4.45-8.547,7.206c-0.958,1.078-0.235,3.651-0.277,5.542
			c1.555-0.065,3.527,0.46,4.595-0.295c5.53-3.909,10.942-8.008,16.143-12.345c1.71-1.426,3.476-4.45-0.244-5.331
			c-7.677-1.819-15.525-2.949-23.341-4.108c-0.909-0.135-2.858,1.282-2.906,2.065c-0.074,1.21,0.763,3.012,1.781,3.632
			c1.605,0.978,3.651,1.365,5.564,1.67C80.93,77.226,83.204,77.22,85.453,77.37z"/>
		<path fill-rule="evenodd" clip-rule="evenodd" d="M130.312,76.597c4.829,0,9.756,0.615,14.464-0.138
			c8.016-1.281,13.812,2.294,19.033,7.394c14.101,13.775,26.199,29.118,34.309,47.184c4.587,10.217,9.345,20.601,11.909,31.411
			c2.457,10.359,2.382,21.249-0.919,31.95c-5.356,17.369-16.336,30.184-31.003,40.113c-8.923,6.039-18.699,10.541-29.448,12.217
			c-7.676,1.196-15.574,3.029-23.166,2.329c-26.977-2.486-49.397-13.579-65.155-36.641c-13.295-19.458-13.96-39.991-7.094-61.675
			c7.939-25.071,21.883-46.276,40.653-64.475c2.023-1.962,3.972-4.032,6.184-5.76c3.412-2.666,6.933-4.549,11.774-4.046
			c6.093,0.633,12.302,0.152,18.46,0.152C130.312,76.607,130.312,76.602,130.312,76.597z M137.186,191.696
			c-0.679-5.412-1.193-10.668-2.021-15.875c-1.616-10.156-3.279-20.312-5.275-30.398c-0.275-1.392-2.424-3.178-3.93-3.428
			c-6.215-1.028-8.072,0.994-9.029,8.026c-1.568,11.521-3.475,22.995-5.015,34.519c-0.354,2.646-0.375,7.555,0.433,7.771
			c4.629,1.246,4.339-3.197,5.328-5.935c1.604-4.438,5.321-3.141,8.475-3.245c3.199-0.105,3.788,2.143,3.784,4.703
			C129.926,192.819,132.666,193.257,137.186,191.696z M153.18,174.224c0.465-0.021,0.929-0.041,1.394-0.061
			c0.702,1.253,1.532,2.453,2.081,3.771c1.774,4.259,3.214,8.677,5.303,12.768c0.585,1.146,2.961,1.376,4.516,2.026
			c0.438-1.587,1.579-3.375,1.19-4.724c-1.373-4.764-3.608-9.286-4.861-14.072c-0.983-3.755-1.884-7.92-1.227-11.62
			c0.913-5.14,3.441-9.977,5.014-15.024c0.497-1.602,0.151-3.467,0.19-5.21c-1.886,0.889-4.48,1.298-5.488,2.782
			c-1.409,2.078-1.393,5.065-2.449,7.458c-0.748,1.694-2.264,3.051-3.437,4.558c-1.128-1.561-2.555-2.99-3.31-4.715
			c-0.984-2.25-0.893-5.148-2.288-6.993c-1.204-1.592-3.842-2.098-5.846-3.084c-0.164,1.938-0.903,4.053-0.38,5.785
			c1.426,4.715,3.987,9.151,4.933,13.929c0.691,3.492-0.043,7.45-0.896,11.022c-1.333,5.592-3.403,11.006-4.897,16.567
			c-0.233,0.866,0.962,3.019,1.438,3.001c1.245-0.047,2.64-0.758,3.616-1.613c0.638-0.558,0.637-1.833,0.943-2.781
			C150.202,183.401,151.691,178.812,153.18,174.224z M95.005,169.235c0,6.148-0.177,12.308,0.121,18.441
			c0.078,1.599,1.284,3.972,2.591,4.523c3.879,1.64,4.917-0.962,4.912-4.307c-0.02-11.633-0.021-23.264-0.072-34.896
			c-0.012-2.812-0.197-5.354,3.992-5.274c1.359,0.025,2.754-1.801,4.132-2.78c-1.457-1.016-2.857-2.792-4.382-2.906
			c-5.126-0.383-10.312-0.404-15.438-0.039c-1.398,0.1-2.666,2.043-3.993,3.141c1.263,0.932,2.477,2.566,3.8,2.659
			c3.761,0.267,4.684,1.876,4.424,5.491C94.712,158.58,94.994,163.918,95.005,169.235z"/>
		<path fill-rule="evenodd" clip-rule="evenodd" d="M126.547,72.459c-6.995,0-13.998,0.186-20.981-0.1
			c-2.501-0.102-5.337-0.785-7.355-2.17c-5.044-3.462-9.69-7.502-14.532-11.263c-2.234-1.737-2.844-3.134-1.304-6.197
			c2.958-5.879,6.418-10.264,12.955-12.816c5.892-2.3,10.793-7.016,16.537-9.842c7.757-3.817,16.04-6.209,24.891-5.77
			c2.327,0.116,4.68,0.201,6.991-0.01c7.104-0.647,13.385,0.614,18.819,5.844c1.936,1.862,5.245,3.003,7.999,3.152
			c5.162,0.279,6.57,1.859,4.091,6.515c-3.172,5.957-6.44,11.88-10.013,17.601c-2.447,3.917-5.788,7.284-8.165,11.236
			c-2.079,3.457-4.976,3.996-8.446,3.976c-7.162-0.038-14.324-0.012-21.487-0.012C126.547,72.556,126.547,72.507,126.547,72.459z"/>
		<path fill-rule="evenodd" clip-rule="evenodd" d="M85.453,77.37c-2.249-0.15-4.523-0.145-6.739-0.498
			c-1.913-0.306-3.959-0.692-5.564-1.67c-1.018-0.62-1.855-2.422-1.781-3.632c0.048-0.783,1.997-2.2,2.906-2.065
			c7.816,1.159,15.664,2.289,23.341,4.108c3.719,0.881,1.954,3.905,0.244,5.331c-5.201,4.336-10.613,8.436-16.143,12.345
			c-1.068,0.755-3.04,0.229-4.595,0.295c0.042-1.891-0.682-4.464,0.277-5.542c2.449-2.756,5.648-4.848,8.547-7.206
			C85.78,78.347,85.616,77.858,85.453,77.37z"/>
		<path fill-rule="evenodd" clip-rule="evenodd" fill="none" d="M137.186,191.696c-4.52,1.561-7.26,1.123-7.251-3.861
			c0.004-2.561-0.585-4.809-3.784-4.703c-3.154,0.104-6.872-1.192-8.475,3.245c-0.989,2.737-0.698,7.181-5.328,5.935
			c-0.808-0.217-0.787-5.125-0.433-7.771c1.541-11.523,3.447-22.998,5.015-34.519c0.957-7.032,2.814-9.055,9.029-8.026
			c1.505,0.25,3.654,2.036,3.93,3.428c1.996,10.087,3.659,20.242,5.275,30.398C135.992,181.028,136.507,186.284,137.186,191.696z
			 M125.447,156.356c-0.659-0.031-1.317-0.062-1.976-0.094c-1.152,5.715-2.482,11.403-3.287,17.167
			c-0.14,1.006,1.78,2.98,3.038,3.276c0.95,0.224,3.418-1.54,3.4-2.379C126.491,168.33,125.895,162.345,125.447,156.356z"/>
		<path fill-rule="evenodd" clip-rule="evenodd" fill="none" d="M153.18,174.224c-1.488,4.589-2.978,9.178-4.46,13.77
			c-0.307,0.948-0.306,2.224-0.943,2.781c-0.977,0.855-2.371,1.566-3.616,1.613c-0.477,0.018-1.672-2.135-1.438-3.001
			c1.494-5.562,3.564-10.976,4.897-16.567c0.853-3.572,1.587-7.53,0.896-11.022c-0.945-4.777-3.507-9.214-4.933-13.929
			c-0.523-1.732,0.216-3.847,0.38-5.785c2.004,0.986,4.642,1.492,5.846,3.084c1.396,1.845,1.304,4.743,2.288,6.993
			c0.755,1.725,2.182,3.154,3.31,4.715c1.173-1.507,2.688-2.863,3.437-4.558c1.057-2.393,1.04-5.38,2.449-7.458
			c1.008-1.484,3.603-1.894,5.488-2.782c-0.039,1.743,0.307,3.608-0.19,5.21c-1.572,5.048-4.101,9.885-5.014,15.024
			c-0.657,3.7,0.243,7.865,1.227,11.62c1.253,4.786,3.488,9.309,4.861,14.072c0.389,1.349-0.753,3.137-1.191,4.724
			c-1.554-0.65-3.93-0.881-4.515-2.026c-2.089-4.091-3.528-8.509-5.303-12.768c-0.549-1.317-1.379-2.518-2.081-3.771
			C154.108,174.183,153.645,174.203,153.18,174.224z"/>
		<path fill-rule="evenodd" clip-rule="evenodd" fill="none" d="M94.999,169.235c-0.005-5.317-0.287-10.655,0.092-15.947
			c0.26-3.615-0.663-5.225-4.424-5.491c-1.323-0.093-2.537-1.728-3.8-2.659c1.327-1.098,2.594-3.041,3.993-3.141
			c5.125-0.365,10.312-0.344,15.438,0.039c1.524,0.114,2.925,1.891,4.382,2.906c-1.378,0.979-2.773,2.806-4.132,2.78
			c-4.189-0.08-4.004,2.462-3.992,5.274c0.051,11.633,0.052,23.264,0.072,34.896c0.006,3.345-1.033,5.946-4.912,4.307
			c-1.307-0.552-2.513-2.925-2.591-4.523C94.828,181.543,95.005,175.384,94.999,169.235z"/>
		<path fill-rule="evenodd" clip-rule="evenodd" d="M125.447,156.356c0.448,5.988,1.043,11.974,1.174,17.971
			c0.018,0.839-2.45,2.603-3.4,2.379c-1.258-0.296-3.178-2.271-3.038-3.276c0.805-5.764,2.135-11.452,3.287-17.167
			C124.13,156.294,124.789,156.325,125.447,156.356z"/>
	</g>
</g>
</svg>
