<?xml version="1.0" encoding="iso-8859-1"?>
<!-- Generator: Adobe Illustrator 19.0.0, SVG Export Plug-In . SVG Version: 6.00 Build 0)  -->
<svg version="1.1" id="Layer_1" xmlns="http://www.w3.org/2000/svg" xmlns:xlink="http://www.w3.org/1999/xlink" x="0px" y="0px"
	 viewBox="0 0 512 512" style="enable-background:new 0 0 512 512;" xml:space="preserve">
<path style="fill:#F1F4FB;" d="M350.063,503.983H84.977c-9.446,0-17.102-7.656-17.102-17.102V25.119
	c0-9.446,7.656-17.102,17.102-17.102h342.046c9.446,0,17.102,7.656,17.102,17.102v384.802L350.063,503.983z"/>
<path style="fill:#D5DCED;" d="M350.063,503.983v-76.96c0-9.446,7.656-17.102,17.102-17.102h76.96L350.063,503.983z"/>
<path d="M427.023,0H84.977C71.126,0,59.858,11.268,59.858,25.119v461.762c0,13.851,11.268,25.119,25.119,25.119h265.086
	c2.126,0,4.165-0.844,5.668-2.348l94.063-94.063c1.504-1.503,2.348-3.542,2.348-5.668V25.119C452.142,11.268,440.874,0,427.023,0z
	 M358.079,484.63v-57.607c0-5.01,4.076-9.086,9.086-9.086h57.607L358.079,484.63z M436.109,401.904h-68.944
	c-13.851,0-25.119,11.268-25.119,25.119v68.944H84.977c-5.01,0-9.086-4.076-9.086-9.086V25.119c0-5.01,4.076-9.086,9.086-9.086
	h342.046c5.01,0,9.086,4.076,9.086,9.086V401.904z"/>
<path d="M136.284,84.443h26.188v77.495c0,4.427,3.589,8.017,8.017,8.017s8.017-3.589,8.017-8.017V84.443h26.188
	c4.427,0,8.017-3.589,8.017-8.017s-3.589-8.017-8.017-8.017h-68.409c-4.427,0-8.017,3.589-8.017,8.017
	S131.857,84.443,136.284,84.443z"/>
<path d="M210.941,169.616c4.241,1.275,8.71-1.134,9.982-5.374l3.416-11.39h46.219l3.417,11.389c1.042,3.473,4.227,5.715,7.676,5.715
	c0.762,0,1.538-0.11,2.307-0.34c4.24-1.272,6.647-5.741,5.374-9.982l-23.826-79.418c-2.119-7.062-8.496-11.807-15.869-11.807h-4.378
	c-7.373,0-13.75,4.745-15.869,11.807l-23.826,79.418C204.293,163.875,206.699,168.344,210.941,169.616z M244.748,84.823
	c0.067-0.224,0.278-0.381,0.512-0.381h4.378c0.234,0,0.445,0.156,0.512,0.381l15.598,51.995h-36.599L244.748,84.823z"/>
<path d="M373.732,157.34l-26.712-38.158l26.712-38.158c2.539-3.627,1.657-8.626-1.97-11.165c-3.627-2.539-8.626-1.658-11.165,1.97
	l-23.362,33.374l-23.362-33.374c-2.539-3.628-7.539-4.51-11.165-1.97c-3.628,2.539-4.51,7.538-1.97,11.165l26.712,38.158
	L300.74,157.34c-2.539,3.627-1.657,8.626,1.97,11.165c1.399,0.98,3.003,1.449,4.59,1.449c2.527,0,5.015-1.192,6.574-3.42
	l23.362-33.374l23.362,33.374c1.56,2.228,4.047,3.42,6.574,3.42c1.587,0,3.192-0.47,4.59-1.449
	C375.389,165.966,376.272,160.967,373.732,157.34z"/>
<path d="M119.182,229.812h17.102c4.427,0,8.017-3.589,8.017-8.017s-3.589-8.017-8.017-8.017h-17.102
	c-4.427,0-8.017,3.589-8.017,8.017S114.754,229.812,119.182,229.812z"/>
<path d="M119.182,264.017h17.102c4.427,0,8.017-3.589,8.017-8.017c0-4.427-3.589-8.017-8.017-8.017h-17.102
	c-4.427,0-8.017,3.589-8.017,8.017C111.165,260.427,114.754,264.017,119.182,264.017z"/>
<path d="M119.182,298.221h17.102c4.427,0,8.017-3.589,8.017-8.017c0-4.427-3.589-8.017-8.017-8.017h-17.102
	c-4.427,0-8.017,3.589-8.017,8.017C111.165,294.632,114.754,298.221,119.182,298.221z"/>
<path d="M392.818,213.779h-17.102c-4.427,0-8.017,3.589-8.017,8.017s3.589,8.017,8.017,8.017h17.102
	c4.427,0,8.017-3.589,8.017-8.017S397.246,213.779,392.818,213.779z"/>
<path d="M392.818,247.983h-17.102c-4.427,0-8.017,3.589-8.017,8.017c0,4.427,3.589,8.017,8.017,8.017h17.102
	c4.427,0,8.017-3.589,8.017-8.017C400.835,251.573,397.246,247.983,392.818,247.983z"/>
<path d="M392.818,282.188h-17.102c-4.427,0-8.017,3.589-8.017,8.017c0,4.427,3.589,8.017,8.017,8.017h17.102
	c4.427,0,8.017-3.589,8.017-8.017C400.835,285.777,397.246,282.188,392.818,282.188z"/>
<path d="M273.102,213.779H170.489c-4.427,0-8.017,3.589-8.017,8.017s3.589,8.017,8.017,8.017h102.614
	c4.427,0,8.017-3.589,8.017-8.017S277.53,213.779,273.102,213.779z"/>
<path d="M170.489,264.017h68.409c4.427,0,8.017-3.589,8.017-8.017c0-4.427-3.589-8.017-8.017-8.017h-68.409
	c-4.427,0-8.017,3.589-8.017,8.017C162.472,260.427,166.061,264.017,170.489,264.017z"/>
<path d="M281.119,290.205c0-4.427-3.589-8.017-8.017-8.017H170.489c-4.427,0-8.017,3.589-8.017,8.017
	c0,4.427,3.589,8.017,8.017,8.017h102.614C277.53,298.221,281.119,294.632,281.119,290.205z"/>
<path d="M162.472,368.768c0,4.427,3.589,8.017,8.017,8.017s8.017-3.589,8.017-8.017c0-12.784-10.768-23.198-25.653-25.984v-1.273
	c0-4.427-3.589-8.017-8.017-8.017c-4.427,0-8.017,3.589-8.017,8.017v1.273c-14.885,2.786-25.653,13.2-25.653,25.984
	c0,17.862,14.265,25.369,25.653,29.69v27.859c-5.907-1.936-9.62-5.834-9.62-9.447c0-4.427-3.589-8.017-8.017-8.017
	c-4.427,0-8.017,3.589-8.017,8.017c0,12.784,10.768,23.198,25.653,25.984v1.273c0,4.427,3.589,8.017,8.017,8.017
	c4.427,0,8.017-3.589,8.017-8.017v-1.273c14.885-2.786,25.653-13.2,25.653-25.984c0-17.862-14.265-25.369-25.653-29.69v-27.859
	C158.758,361.257,162.472,365.154,162.472,368.768z M136.818,380.966c-7.992-3.916-9.62-7.337-9.62-12.198
	c0-3.614,3.713-7.511,9.62-9.447V380.966z M162.472,416.868c0,3.614-3.713,7.511-9.62,9.447V404.67
	C160.844,408.587,162.472,412.007,162.472,416.868z"/>
<path d="M204.693,350.597c-4.427,0-8.017,3.589-8.017,8.017c0,4.427,3.589,8.017,8.017,8.017h59.858
	c4.427,0,8.017-3.589,8.017-8.017c0-4.427-3.589-8.017-8.017-8.017H204.693z"/>
<path d="M238.898,419.006h-34.205c-4.427,0-8.017,3.589-8.017,8.017c0,4.427,3.589,8.017,8.017,8.017h34.205
	c4.427,0,8.017-3.589,8.017-8.017C246.914,422.596,243.325,419.006,238.898,419.006z"/>
<path d="M290.205,419.006h-17.102c-4.427,0-8.017,3.589-8.017,8.017c0,4.427,3.589,8.017,8.017,8.017h17.102
	c4.427,0,8.017-3.589,8.017-8.017C298.221,422.596,294.632,419.006,290.205,419.006z"/>
<path d="M315.858,384.802H204.693c-4.427,0-8.017,3.589-8.017,8.017c0,4.427,3.589,8.017,8.017,8.017h111.165
	c4.427,0,8.017-3.589,8.017-8.017C323.875,388.391,320.285,384.802,315.858,384.802z"/>
<circle cx="273.102" cy="256" r="8.017"/>
<circle cx="307.307" cy="256" r="8.017"/>
<circle cx="341.511" cy="256" r="8.017"/>
<circle cx="307.307" cy="221.795" r="8.017"/>
<circle cx="341.511" cy="221.795" r="8.017"/>
<circle cx="307.307" cy="290.205" r="8.017"/>
<circle cx="341.511" cy="290.205" r="8.017"/>
<g>
</g>
<g>
</g>
<g>
</g>
<g>
</g>
<g>
</g>
<g>
</g>
<g>
</g>
<g>
</g>
<g>
</g>
<g>
</g>
<g>
</g>
<g>
</g>
<g>
</g>
<g>
</g>
<g>
</g>
</svg>
